<svg id="visual" viewBox="0 0 1920 1080" width="1920" height="1080" xmlns="http://www.w3.org/2000/svg" xmlns:xlink="http://www.w3.org/1999/xlink" version="1.1"><path d="M0 87L384 87L384 77L768 77L768 66L1152 66L1152 55L1536 55L1536 55L1920 55L1920 66L1920 0L1920 0L1536 0L1536 0L1152 0L1152 0L768 0L768 0L384 0L384 0L0 0Z" fill="#dbe2ef"></path><path d="M0 174L384 174L384 185L768 185L768 163L1152 163L1152 141L1536 141L1536 120L1920 120L1920 174L1920 64L1920 53L1536 53L1536 53L1152 53L1152 64L768 64L768 75L384 75L384 85L0 85Z" fill="#dfe4f0"></path><path d="M0 217L384 217L384 228L768 228L768 217L1152 217L1152 239L1536 239L1536 185L1920 185L1920 249L1920 172L1920 118L1536 118L1536 139L1152 139L1152 161L768 161L768 183L384 183L384 172L0 172Z" fill="#e2e7f1"></path><path d="M0 293L384 293L384 293L768 293L768 260L1152 260L1152 293L1536 293L1536 217L1920 217L1920 293L1920 247L1920 183L1536 183L1536 237L1152 237L1152 215L768 215L768 226L384 226L384 215L0 215Z" fill="#e6e9f2"></path><path d="M0 671L384 671L384 498L768 498L768 552L1152 552L1152 617L1536 617L1536 509L1920 509L1920 509L1920 291L1920 215L1536 215L1536 291L1152 291L1152 258L768 258L768 291L384 291L384 291L0 291Z" fill="#e9ecf3"></path><path d="M0 746L384 746L384 617L768 617L768 649L1152 649L1152 692L1536 692L1536 649L1920 649L1920 595L1920 507L1920 507L1536 507L1536 615L1152 615L1152 550L768 550L768 496L384 496L384 669L0 669Z" fill="#eceef4"></path><path d="M0 843L384 843L384 714L768 714L768 746L1152 746L1152 800L1536 800L1536 789L1920 789L1920 681L1920 593L1920 647L1536 647L1536 690L1152 690L1152 647L768 647L768 615L384 615L384 744L0 744Z" fill="#f0f1f5"></path><path d="M0 995L384 995L384 1005L768 1005L768 908L1152 908L1152 984L1536 984L1536 930L1920 930L1920 908L1920 679L1920 787L1536 787L1536 798L1152 798L1152 744L768 744L768 712L384 712L384 841L0 841Z" fill="#f3f3f5"></path><path d="M0 1081L384 1081L384 1081L768 1081L768 1081L1152 1081L1152 1081L1536 1081L1536 1081L1920 1081L1920 1081L1920 906L1920 928L1536 928L1536 982L1152 982L1152 906L768 906L768 1003L384 1003L384 993L0 993Z" fill="#f6f6f6"></path></svg>