<svg id="visual" viewBox="0 0 960 540" width="960" height="540" xmlns="http://www.w3.org/2000/svg" xmlns:xlink="http://www.w3.org/1999/xlink" version="1.1"><rect x="0" y="0" width="960" height="540" fill="#0F0F10"></rect><path d="M0 117L16 114.2C32 111.3 64 105.7 96 101.5C128 97.3 160 94.7 192 98.7C224 102.7 256 113.3 288 112C320 110.7 352 97.3 384 96.7C416 96 448 108 480 113.7C512 119.3 544 118.7 576 118.2C608 117.7 640 117.3 672 117.3C704 117.3 736 117.7 768 115C800 112.3 832 106.7 864 104C896 101.3 928 101.7 944 101.8L960 102L960 0L944 0C928 0 896 0 864 0C832 0 800 0 768 0C736 0 704 0 672 0C640 0 608 0 576 0C544 0 512 0 480 0C448 0 416 0 384 0C352 0 320 0 288 0C256 0 224 0 192 0C160 0 128 0 96 0C64 0 32 0 16 0L0 0Z" fill="#fa7268"></path><path d="M0 66L16 70.5C32 75 64 84 96 84.7C128 85.3 160 77.7 192 77.3C224 77 256 84 288 84C320 84 352 77 384 77.8C416 78.7 448 87.3 480 88.7C512 90 544 84 576 83.8C608 83.7 640 89.3 672 86.7C704 84 736 73 768 70.2C800 67.3 832 72.7 864 73.5C896 74.3 928 70.7 944 68.8L960 67L960 0L944 0C928 0 896 0 864 0C832 0 800 0 768 0C736 0 704 0 672 0C640 0 608 0 576 0C544 0 512 0 480 0C448 0 416 0 384 0C352 0 320 0 288 0C256 0 224 0 192 0C160 0 128 0 96 0C64 0 32 0 16 0L0 0Z" fill="#eb5967"></path><path d="M0 51L16 50.3C32 49.7 64 48.3 96 48.2C128 48 160 49 192 52C224 55 256 60 288 58.8C320 57.7 352 50.3 384 49.5C416 48.7 448 54.3 480 59.2C512 64 544 68 576 67.5C608 67 640 62 672 59.8C704 57.7 736 58.3 768 59.3C800 60.3 832 61.7 864 60C896 58.3 928 53.7 944 51.3L960 49L960 0L944 0C928 0 896 0 864 0C832 0 800 0 768 0C736 0 704 0 672 0C640 0 608 0 576 0C544 0 512 0 480 0C448 0 416 0 384 0C352 0 320 0 288 0C256 0 224 0 192 0C160 0 128 0 96 0C64 0 32 0 16 0L0 0Z" fill="#da3f67"></path><path d="M0 36L16 37.3C32 38.7 64 41.3 96 39.8C128 38.3 160 32.7 192 32.3C224 32 256 37 288 39.3C320 41.7 352 41.3 384 40.3C416 39.3 448 37.7 480 38.2C512 38.7 544 41.3 576 39.7C608 38 640 32 672 30.5C704 29 736 32 768 32.5C800 33 832 31 864 31.7C896 32.3 928 35.7 944 37.3L960 39L960 0L944 0C928 0 896 0 864 0C832 0 800 0 768 0C736 0 704 0 672 0C640 0 608 0 576 0C544 0 512 0 480 0C448 0 416 0 384 0C352 0 320 0 288 0C256 0 224 0 192 0C160 0 128 0 96 0C64 0 32 0 16 0L0 0Z" fill="#c62368"></path></svg>