<svg id="visual" viewBox="0 0 960 540" width="960" height="540" xmlns="http://www.w3.org/2000/svg" xmlns:xlink="http://www.w3.org/1999/xlink" version="1.1"><rect x="0" y="0" width="960" height="540" fill="#0F0F10"></rect><path d="M0 374L22.8 368C45.7 362 91.3 350 137 344.7C182.7 339.3 228.3 340.7 274 349.3C319.7 358 365.3 374 411.2 376.5C457 379 503 368 548.8 364.7C594.7 361.3 640.3 365.7 686 364.3C731.7 363 777.3 356 823 354.3C868.7 352.7 914.3 356.3 937.2 358.2L960 360L960 541L937.2 541C914.3 541 868.7 541 823 541C777.3 541 731.7 541 686 541C640.3 541 594.7 541 548.8 541C503 541 457 541 411.2 541C365.3 541 319.7 541 274 541C228.3 541 182.7 541 137 541C91.3 541 45.7 541 22.8 541L0 541Z" fill="#fa7268"></path><path d="M0 394L22.8 390.3C45.7 386.7 91.3 379.3 137 373C182.7 366.7 228.3 361.3 274 364.8C319.7 368.3 365.3 380.7 411.2 383.7C457 386.7 503 380.3 548.8 383.2C594.7 386 640.3 398 686 404.3C731.7 410.7 777.3 411.3 823 405.7C868.7 400 914.3 388 937.2 382L960 376L960 541L937.2 541C914.3 541 868.7 541 823 541C777.3 541 731.7 541 686 541C640.3 541 594.7 541 548.8 541C503 541 457 541 411.2 541C365.3 541 319.7 541 274 541C228.3 541 182.7 541 137 541C91.3 541 45.7 541 22.8 541L0 541Z" fill="#ef5f67"></path><path d="M0 436L22.8 433C45.7 430 91.3 424 137 422.5C182.7 421 228.3 424 274 429.8C319.7 435.7 365.3 444.3 411.2 449.8C457 455.3 503 457.7 548.8 456.2C594.7 454.7 640.3 449.3 686 448.2C731.7 447 777.3 450 823 450.2C868.7 450.3 914.3 447.7 937.2 446.3L960 445L960 541L937.2 541C914.3 541 868.7 541 823 541C777.3 541 731.7 541 686 541C640.3 541 594.7 541 548.8 541C503 541 457 541 411.2 541C365.3 541 319.7 541 274 541C228.3 541 182.7 541 137 541C91.3 541 45.7 541 22.8 541L0 541Z" fill="#e34c67"></path><path d="M0 480L22.8 479.5C45.7 479 91.3 478 137 476.8C182.7 475.7 228.3 474.3 274 471C319.7 467.7 365.3 462.3 411.2 462.3C457 462.3 503 467.7 548.8 466.8C594.7 466 640.3 459 686 456.2C731.7 453.3 777.3 454.7 823 455.2C868.7 455.7 914.3 455.3 937.2 455.2L960 455L960 541L937.2 541C914.3 541 868.7 541 823 541C777.3 541 731.7 541 686 541C640.3 541 594.7 541 548.8 541C503 541 457 541 411.2 541C365.3 541 319.7 541 274 541C228.3 541 182.7 541 137 541C91.3 541 45.7 541 22.8 541L0 541Z" fill="#d53867"></path><path d="M0 501L22.8 500.2C45.7 499.3 91.3 497.7 137 499.5C182.7 501.3 228.3 506.7 274 504.3C319.7 502 365.3 492 411.2 489.8C457 487.7 503 493.3 548.8 498.2C594.7 503 640.3 507 686 507C731.7 507 777.3 503 823 498.8C868.7 494.7 914.3 490.3 937.2 488.2L960 486L960 541L937.2 541C914.3 541 868.7 541 823 541C777.3 541 731.7 541 686 541C640.3 541 594.7 541 548.8 541C503 541 457 541 411.2 541C365.3 541 319.7 541 274 541C228.3 541 182.7 541 137 541C91.3 541 45.7 541 22.8 541L0 541Z" fill="#c62368"></path></svg>